<svg xmlns="http://www.w3.org/2000/svg" viewBox="0 0 800 500" font-family="sans-serif">
  <defs>
    <radialGradient id="centerGlow" cx="50%" cy="50%" r="50%">
      <stop offset="0%" stop-color="#1a73e8" stop-opacity="0.15"/>
      <stop offset="100%" stop-color="#1a73e8" stop-opacity="0"/>
    </radialGradient>
  </defs>
  <rect width="800" height="500" fill="#f8f9fa"/>

  <text x="400" y="28" text-anchor="middle" font-size="20" font-weight="bold" fill="#202124">24 课全景 — 一个循环</text>

  <!-- Center glow -->
  <circle cx="400" cy="250" r="200" fill="url(#centerGlow)"/>

  <!-- Spokes (lines from center to each node) -->
  <!-- Layer 1: 工具层 (green) - 4 items -->
  <line x1="400" y1="250" x2="170" y2="60" stroke="#34a853" stroke-width="1.5" opacity="0.3"/>
  <line x1="400" y1="250" x2="80" y2="130" stroke="#34a853" stroke-width="1.5" opacity="0.3"/>
  <line x1="400" y1="250" x2="60" y2="200" stroke="#34a853" stroke-width="1.5" opacity="0.3"/>
  <line x1="400" y1="250" x2="60" y2="260" stroke="#34a853" stroke-width="1.5" opacity="0.3"/>

  <!-- Layer 2: 记忆层 (blue) - 4 items -->
  <line x1="400" y1="250" x2="170" y2="440" stroke="#1a73e8" stroke-width="1.5" opacity="0.3"/>
  <line x1="400" y1="250" x2="80" y2="370" stroke="#1a73e8" stroke-width="1.5" opacity="0.3"/>
  <line x1="400" y1="250" x2="60" y2="310" stroke="#1a73e8" stroke-width="1.5" opacity="0.3"/>
  <line x1="400" y1="250" x2="630" y2="440" stroke="#1a73e8" stroke-width="1.5" opacity="0.3"/>

  <!-- Layer 3: 安全层 (red) - 3 items -->
  <line x1="400" y1="250" x2="720" y2="130" stroke="#ea4335" stroke-width="1.5" opacity="0.3"/>
  <line x1="400" y1="250" x2="740" y2="200" stroke="#ea4335" stroke-width="1.5" opacity="0.3"/>
  <line x1="400" y1="250" x2="740" y2="260" stroke="#ea4335" stroke-width="1.5" opacity="0.3"/>

  <!-- Layer 4: 持久层 (yellow) - 3 items -->
  <line x1="400" y1="250" x2="630" y2="60" stroke="#fbbc04" stroke-width="1.5" opacity="0.3"/>
  <line x1="400" y1="250" x2="720" y2="370" stroke="#fbbc04" stroke-width="1.5" opacity="0.3"/>
  <line x1="400" y1="250" x2="740" y2="310" stroke="#fbbc04" stroke-width="1.5" opacity="0.3"/>

  <!-- Layer 5: 进程层 (purple) - 3 items -->
  <line x1="400" y1="250" x2="80" y2="440" stroke="#7b1fa2" stroke-width="1.5" opacity="0.3"/>
  <line x1="400" y1="250" x2="250" y2="460" stroke="#7b1fa2" stroke-width="1.5" opacity="0.3"/>
  <line x1="400" y1="250" x2="550" y2="460" stroke="#7b1fa2" stroke-width="1.5" opacity="0.3"/>

  <!-- Layer 6: 交互层 (cyan) - 4 items -->
  <line x1="400" y1="250" x2="400" y2="50" stroke="#0097a7" stroke-width="1.5" opacity="0.3"/>
  <line x1="400" y1="250" x2="400" y2="450" stroke="#0097a7" stroke-width="1.5" opacity="0.3"/>
  <line x1="400" y1="250" x2="300" y2="60" stroke="#0097a7" stroke-width="1.5" opacity="0.3"/>
  <line x1="400" y1="250" x2="500" y2="60" stroke="#0097a7" stroke-width="1.5" opacity="0.3"/>

  <!-- Center: Agent Loop -->
  <circle cx="400" cy="250" r="65" fill="#1a73e8"/>
  <circle cx="400" cy="250" r="65" fill="none" stroke="#1a73e8" stroke-width="3" opacity="0.3"/>
  <text x="400" y="240" text-anchor="middle" font-size="14" fill="white" font-weight="bold">s01</text>
  <text x="400" y="258" text-anchor="middle" font-size="13" fill="white" font-weight="bold">Agent Loop</text>
  <text x="400" y="275" text-anchor="middle" font-size="10" fill="#e8f0fe">核心循环</text>

  <!-- 工具层 (green) -->
  <rect x="120" y="42" width="100" height="36" rx="6" fill="#34a853"/>
  <text x="170" y="58" text-anchor="middle" font-size="10" fill="white" font-weight="bold">s02 工具分发</text>
  <text x="170" y="72" text-anchor="middle" font-size="8" fill="white">Tool Dispatch</text>

  <rect x="30" y="112" width="100" height="36" rx="6" fill="#34a853"/>
  <text x="80" y="128" text-anchor="middle" font-size="10" fill="white" font-weight="bold">s03 延迟加载</text>
  <text x="80" y="142" text-anchor="middle" font-size="8" fill="white">Deferred Loading</text>

  <rect x="10" y="182" width="100" height="36" rx="6" fill="#34a853"/>
  <text x="60" y="198" text-anchor="middle" font-size="10" fill="white" font-weight="bold">s16 技能系统</text>
  <text x="60" y="212" text-anchor="middle" font-size="8" fill="white">Skills System</text>

  <rect x="10" y="242" width="100" height="36" rx="6" fill="#34a853"/>
  <text x="60" y="258" text-anchor="middle" font-size="10" fill="white" font-weight="bold">s17 MCP连接器</text>
  <text x="60" y="272" text-anchor="middle" font-size="8" fill="white">MCP Connectors</text>

  <!-- 记忆层 (blue) -->
  <rect x="120" y="422" width="100" height="36" rx="6" fill="#1a73e8"/>
  <text x="170" y="438" text-anchor="middle" font-size="10" fill="white" font-weight="bold">s10 工作区记忆</text>
  <text x="170" y="452" text-anchor="middle" font-size="8" fill="white">Workspace Memory</text>

  <rect x="30" y="352" width="100" height="36" rx="6" fill="#1a73e8"/>
  <text x="80" y="368" text-anchor="middle" font-size="10" fill="white" font-weight="bold">s11 用户记忆</text>
  <text x="80" y="382" text-anchor="middle" font-size="8" fill="white">User Memory</text>

  <rect x="10" y="292" width="100" height="36" rx="6" fill="#1a73e8"/>
  <text x="60" y="308" text-anchor="middle" font-size="10" fill="white" font-weight="bold">s12 云端记忆</text>
  <text x="60" y="322" text-anchor="middle" font-size="8" fill="white">Cloud Memory</text>

  <rect x="580" y="422" width="100" height="36" rx="6" fill="#1a73e8"/>
  <text x="630" y="438" text-anchor="middle" font-size="10" fill="white" font-weight="bold">s09 JSONL</text>
  <text x="630" y="452" text-anchor="middle" font-size="8" fill="white">Transcript</text>

  <!-- 安全层 (red) -->
  <rect x="670" y="112" width="100" height="36" rx="6" fill="#ea4335"/>
  <text x="720" y="128" text-anchor="middle" font-size="10" fill="white" font-weight="bold">s04 权限钩子</text>
  <text x="720" y="142" text-anchor="middle" font-size="8" fill="white">Permission Hooks</text>

  <rect x="690" y="182" width="100" height="36" rx="6" fill="#ea4335"/>
  <text x="740" y="198" text-anchor="middle" font-size="10" fill="white" font-weight="bold">s23 审计沙箱</text>
  <text x="740" y="212" text-anchor="middle" font-size="8" fill="white">Audit Sandbox</text>

  <rect x="690" y="242" width="100" height="36" rx="6" fill="#ea4335"/>
  <text x="740" y="258" text-anchor="middle" font-size="10" fill="white" font-weight="bold">s08 模型路由</text>
  <text x="740" y="272" text-anchor="middle" font-size="8" fill="white">Model Routing</text>

  <!-- 持久层 (yellow) -->
  <rect x="580" y="42" width="100" height="36" rx="6" fill="#fbbc04"/>
  <text x="630" y="58" text-anchor="middle" font-size="10" fill="#202124" font-weight="bold">s14 上下文压缩</text>
  <text x="630" y="72" text-anchor="middle" font-size="8" fill="#202124">Context Compact</text>

  <rect x="670" y="352" width="100" height="36" rx="6" fill="#fbbc04"/>
  <text x="720" y="368" text-anchor="middle" font-size="10" fill="#202124" font-weight="bold">s21 SQLite</text>
  <text x="720" y="382" text-anchor="middle" font-size="8" fill="#202124">Database</text>

  <rect x="690" y="292" width="100" height="36" rx="6" fill="#fbbc04"/>
  <text x="740" y="308" text-anchor="middle" font-size="10" fill="#202124" font-weight="bold">s22 自动化</text>
  <text x="740" y="322" text-anchor="middle" font-size="8" fill="#202124">Automation</text>

  <!-- 进程层 (purple) -->
  <rect x="30" y="422" width="100" height="36" rx="6" fill="#7b1fa2"/>
  <text x="80" y="438" text-anchor="middle" font-size="10" fill="white" font-weight="bold">s05 Electron</text>
  <text x="80" y="452" text-anchor="middle" font-size="8" fill="white">Shell</text>

  <rect x="200" y="452" width="100" height="36" rx="6" fill="#7b1fa2"/>
  <text x="250" y="468" text-anchor="middle" font-size="10" fill="white" font-weight="bold">s06 Sidecar</text>
  <text x="250" y="482" text-anchor="middle" font-size="8" fill="white">Server</text>

  <rect x="500" y="452" width="100" height="36" rx="6" fill="#7b1fa2"/>
  <text x="550" y="468" text-anchor="middle" font-size="10" fill="white" font-weight="bold">s07 会话管理</text>
  <text x="550" y="482" text-anchor="middle" font-size="8" fill="white">Session Mgmt</text>

  <!-- 交互层 (cyan) -->
  <rect x="350" y="32" width="100" height="36" rx="6" fill="#0097a7"/>
  <text x="400" y="48" text-anchor="middle" font-size="10" fill="white" font-weight="bold">s15 Prompt</text>
  <text x="400" y="62" text-anchor="middle" font-size="8" fill="white">Assembly</text>

  <rect x="250" y="42" width="100" height="36" rx="6" fill="#0097a7"/>
  <text x="300" y="58" text-anchor="middle" font-size="10" fill="white" font-weight="bold">s13 输出外化</text>
  <text x="300" y="72" text-anchor="middle" font-size="8" fill="white">Output External.</text>

  <rect x="450" y="42" width="100" height="36" rx="6" fill="#0097a7"/>
  <text x="500" y="58" text-anchor="middle" font-size="10" fill="white" font-weight="bold">s18 专家系统</text>
  <text x="500" y="72" text-anchor="middle" font-size="8" fill="white">Experts System</text>

  <rect x="350" y="432" width="100" height="36" rx="6" fill="#0097a7"/>
  <text x="400" y="448" text-anchor="middle" font-size="10" fill="white" font-weight="bold">s19 可视化</text>
  <text x="400" y="462" text-anchor="middle" font-size="8" fill="white">Visualizer</text>

  <!-- Missing s20, s24 - add them -->
  <rect x="450" y="432" width="100" height="36" rx="6" fill="#0097a7"/>
  <text x="500" y="448" text-anchor="middle" font-size="10" fill="white" font-weight="bold">s20 结果交付</text>
  <text x="500" y="462" text-anchor="middle" font-size="8" fill="white">Result Present.</text>

  <rect x="250" y="432" width="100" height="36" rx="6" fill="#0097a7"/>
  <text x="300" y="448" text-anchor="middle" font-size="10" fill="white" font-weight="bold">s24 全景总结</text>
  <text x="300" y="462" text-anchor="middle" font-size="8" fill="white">Comprehensive</text>

  <!-- Legend -->
  <rect x="350" y="490" width="100" height="6" rx="3" fill="none"/>

  <!-- Legend at bottom -->
  <circle cx="30" cy="490" r="5" fill="#34a853"/>
  <text x="40" y="494" font-size="9" fill="#202124">工具层</text>

  <circle cx="100" cy="490" r="5" fill="#1a73e8"/>
  <text x="110" y="494" font-size="9" fill="#202124">记忆层</text>

  <circle cx="170" cy="490" r="5" fill="#ea4335"/>
  <text x="180" y="494" font-size="9" fill="#202124">安全层</text>

  <circle cx="240" cy="490" r="5" fill="#fbbc04"/>
  <text x="250" y="494" font-size="9" fill="#202124">持久层</text>

  <circle cx="310" cy="490" r="5" fill="#7b1fa2"/>
  <text x="320" y="494" font-size="9" fill="#202124">进程层</text>

  <circle cx="380" cy="490" r="5" fill="#0097a7"/>
  <text x="390" y="494" font-size="9" fill="#202124">交互层</text>

  <text x="440" y="494" font-size="9" fill="#202124" font-style="italic">所有机制围绕 Agent Loop 运转</text>
</svg>
